# xmcd
#
# Track frame offsets:
#	150
#	15017
#	29835
#	47001
#	63066
#	80302
#	101159
#	126525
#	147979
#	170498
#	186989
#	201092
#
# Disc length: 2968 seconds
#
# Revision: 2305185659
# Processed by: cddbd v1.5.2PL0 Copyright (c) Steve Scherf et al.
# Submitted via: EZCDAudioConverter 8.0.2.1
#
DISCID=a40b960c
DTITLE=Nhóm Sắc Màu - Sắc màu Tuổi Thơ
DYEAR=2001
DGENRE=Dance Pop
TTITLE0=Nhóm Sắc Màu - Cái cò đi đón cơn mưa
TTITLE1=Nhóm Sắc Màu - Sắc màu Tuổi Thơ
TTITLE2=Nhóm Sắc Màu - Xôn xao mùa hè
TTITLE3=Nhóm Sắc Màu - Tai me
TTITLE4=Nhóm Sắc Màu - Baby one more time
TTITLE5=Nhóm Sắc Màu - Hồng môi
TTITLE6=Nhóm Sắc Màu - Mưa
TTITLE7=Nhóm Sắc Màu - Con đường đến trường
TTITLE8=Nhóm Sắc Màu - Chào xuân
TTITLE9=Nhóm Sắc Màu - The day you went away
TTITLE10=Soundtrack - Cái cò đi đón cơn mưa
TTITLE11=Soundtrack - Hồng môi
EXTD=
EXTT0=
EXTT1=
EXTT2=
EXTT3=
EXTT4=
EXTT5=
EXTT6=
EXTT7=
EXTT8=
EXTT9=
EXTT10=
EXTT11=
PLAYORDER=
